<svg width="700" height="600" viewBox="0 0 700 600" fill="none" xmlns="http://www.w3.org/2000/svg">
<path d="M700 458.88H0V459.18H700V458.88Z" fill="#EBEBEB"/>
<path d="M242.508 466.536H210.056V466.836H242.508V466.536Z" fill="#EBEBEB"/>
<path d="M642.278 472.968H562.94V473.268H642.278V472.968Z" fill="#EBEBEB"/>
<path d="M139.146 472.968H59.808V473.268H139.146V472.968Z" fill="#EBEBEB"/>
<path d="M331.8 405.36H61.474C59.3563 405.357 57.3266 404.634 55.8305 403.349C54.3343 402.064 53.494 400.323 53.494 398.508V72.792C53.5125 70.9872 54.3609 69.2616 55.855 67.9899C57.3492 66.7181 59.3684 66.0031 61.474 66H331.8C333.92 66 335.953 66.7219 337.453 68.0069C338.952 69.2919 339.794 71.0347 339.794 72.852V398.508C339.794 400.325 338.952 402.068 337.453 403.353C335.953 404.638 333.92 405.36 331.8 405.36ZM61.474 66.24C59.4491 66.2432 57.5084 66.9349 56.0779 68.1633C54.6474 69.3917 53.844 71.0564 53.844 72.792V398.508C53.844 400.244 54.6474 401.908 56.0779 403.137C57.5084 404.365 59.4491 405.057 61.474 405.06H331.8C333.825 405.054 335.765 404.361 337.197 403.134C338.629 401.907 339.437 400.244 339.444 398.508V72.792C339.437 71.0562 338.629 69.3934 337.197 68.166C335.765 66.9387 333.825 66.2463 331.8 66.24H61.474Z" fill="#EBEBEB"/>
<path d="M634.634 405.36H364.294C362.176 405.354 360.147 404.63 358.65 403.346C357.152 402.062 356.307 400.323 356.3 398.508V72.792C356.322 70.9861 357.174 69.2605 358.67 67.9891C360.166 66.7177 362.187 66.0031 364.294 66H634.634C636.737 66.0062 638.753 66.7227 640.244 67.9941C641.735 69.2654 642.582 70.9893 642.6 72.792V398.508C642.602 399.406 642.397 400.296 641.998 401.126C641.599 401.957 641.012 402.712 640.273 403.348C639.533 403.984 638.654 404.49 637.687 404.835C636.719 405.18 635.682 405.358 634.634 405.36ZM364.294 66.24C362.269 66.2463 360.329 66.9387 358.897 68.166C357.465 69.3934 356.657 71.0562 356.65 72.792V398.508C356.657 400.244 357.465 401.907 358.897 403.134C360.329 404.361 362.269 405.054 364.294 405.06H634.634C636.659 405.054 638.599 404.361 640.031 403.134C641.463 401.907 642.271 400.244 642.278 398.508V72.792C642.271 71.0562 641.463 69.3934 640.031 68.166C638.599 66.9387 636.659 66.2463 634.634 66.24H364.294Z" fill="#EBEBEB"/>
<path d="M138.18 156.492H254.8C255.973 156.49 257.136 156.687 258.22 157.072C259.305 157.456 260.29 158.02 261.12 158.731C261.95 159.442 262.608 160.287 263.056 161.216C263.504 162.146 263.734 163.142 263.732 164.148V458.604H129.332V164.136C129.336 162.12 130.267 160.187 131.923 158.755C133.58 157.324 135.828 156.511 138.18 156.492Z" fill="#F5F5F5"/>
<path d="M157.752 174.336H140.42V207.408H157.752V174.336Z" fill="#EBEBEB"/>
<path d="M252.532 174.336H235.2V207.408H252.532V174.336Z" fill="#EBEBEB"/>
<path d="M189.336 174.336H172.004V207.408H189.336V174.336Z" fill="#EBEBEB"/>
<path d="M220.934 174.336H203.602V207.408H220.934V174.336Z" fill="#EBEBEB"/>
<path d="M157.752 226.548H140.42V259.62H157.752V226.548Z" fill="#EBEBEB"/>
<path d="M252.532 226.548H235.2V259.62H252.532V226.548Z" fill="#EBEBEB"/>
<path d="M189.336 226.548H172.004V259.62H189.336V226.548Z" fill="#EBEBEB"/>
<path d="M220.934 226.548H203.602V259.62H220.934V226.548Z" fill="#EBEBEB"/>
<path d="M157.752 278.748H140.42V311.82H157.752V278.748Z" fill="#EBEBEB"/>
<path d="M252.532 278.748H235.2V311.82H252.532V278.748Z" fill="#EBEBEB"/>
<path d="M189.336 278.748H172.004V311.82H189.336V278.748Z" fill="#EBEBEB"/>
<path d="M220.934 278.748H203.602V311.82H220.934V278.748Z" fill="#EBEBEB"/>
<path d="M157.752 330.96H140.42V364.032H157.752V330.96Z" fill="#EBEBEB"/>
<path d="M252.532 330.96H235.2V364.032H252.532V330.96Z" fill="#EBEBEB"/>
<path d="M189.336 330.96H172.004V364.032H189.336V330.96Z" fill="#EBEBEB"/>
<path d="M220.934 330.96H203.602V364.032H220.934V330.96Z" fill="#EBEBEB"/>
<path d="M157.752 383.16H140.42V416.232H157.752V383.16Z" fill="#EBEBEB"/>
<path d="M252.532 383.16H235.2V416.232H252.532V383.16Z" fill="#EBEBEB"/>
<path d="M189.336 383.16H172.004V416.232H189.336V383.16Z" fill="#EBEBEB"/>
<path d="M220.934 383.16H203.602V416.232H220.934V383.16Z" fill="#EBEBEB"/>
<path d="M551.516 183.936H635.012C636.938 183.939 638.784 184.596 640.146 185.764C641.508 186.931 642.274 188.513 642.278 190.164V458.604H544.278V190.176C544.278 188.527 545.039 186.946 546.395 185.776C547.752 184.607 549.593 183.946 551.516 183.936Z" fill="#F5F5F5"/>
<path d="M572.488 200.172H556.738V230.232H572.488V200.172Z" fill="#EBEBEB"/>
<path d="M601.216 200.172H585.466V230.232H601.216V200.172Z" fill="#EBEBEB"/>
<path d="M629.93 200.172H614.18V230.232H629.93V200.172Z" fill="#EBEBEB"/>
<path d="M572.488 247.632H556.738V277.692H572.488V247.632Z" fill="#EBEBEB"/>
<path d="M601.216 247.632H585.466V277.692H601.216V247.632Z" fill="#EBEBEB"/>
<path d="M629.93 247.632H614.18V277.692H629.93V247.632Z" fill="#EBEBEB"/>
<path d="M572.488 295.104H556.738V325.164H572.488V295.104Z" fill="#EBEBEB"/>
<path d="M601.216 295.104H585.466V325.164H601.216V295.104Z" fill="#EBEBEB"/>
<path d="M629.93 295.104H614.18V325.164H629.93V295.104Z" fill="#EBEBEB"/>
<path d="M572.488 342.552H556.738V372.612H572.488V342.552Z" fill="#EBEBEB"/>
<path d="M601.216 342.552H585.466V372.612H601.216V342.552Z" fill="#EBEBEB"/>
<path d="M629.93 342.552H614.18V372.612H629.93V342.552Z" fill="#EBEBEB"/>
<path d="M572.488 390.024H556.738V420.084H572.488V390.024Z" fill="#EBEBEB"/>
<path d="M601.216 390.024H585.466V420.084H601.216V390.024Z" fill="#EBEBEB"/>
<path d="M629.93 390.024H614.18V420.084H629.93V390.024Z" fill="#EBEBEB"/>
<path d="M360.234 107.112H495.866C498.621 107.112 501.263 108.05 503.211 109.72C505.16 111.39 506.254 113.655 506.254 116.016V458.604H349.86V116.016C349.86 113.657 350.953 111.394 352.898 109.724C354.843 108.055 357.481 107.115 360.234 107.112Z" fill="#F5F5F5"/>
<path d="M382.998 127.884H362.838V166.356H382.998V127.884Z" fill="#EBEBEB"/>
<path d="M493.262 127.884H473.102V166.356H493.262V127.884Z" fill="#EBEBEB"/>
<path d="M419.748 127.884H399.588V166.356H419.748V127.884Z" fill="#EBEBEB"/>
<path d="M456.512 127.884H436.352V166.356H456.512V127.884Z" fill="#EBEBEB"/>
<path d="M382.998 188.628H362.838V227.1H382.998V188.628Z" fill="#EBEBEB"/>
<path d="M493.262 188.628H473.102V227.1H493.262V188.628Z" fill="#EBEBEB"/>
<path d="M419.748 188.628H399.588V227.1H419.748V188.628Z" fill="#EBEBEB"/>
<path d="M456.512 188.628H436.352V227.1H456.512V188.628Z" fill="#EBEBEB"/>
<path d="M382.998 249.372H362.838V287.844H382.998V249.372Z" fill="#EBEBEB"/>
<path d="M493.262 249.372H473.102V287.844H493.262V249.372Z" fill="#EBEBEB"/>
<path d="M419.748 249.372H399.588V287.844H419.748V249.372Z" fill="#EBEBEB"/>
<path d="M456.512 249.372H436.352V287.844H456.512V249.372Z" fill="#EBEBEB"/>
<path d="M382.998 310.104H362.838V348.576H382.998V310.104Z" fill="#EBEBEB"/>
<path d="M493.262 310.104H473.102V348.576H493.262V310.104Z" fill="#EBEBEB"/>
<path d="M419.748 310.104H399.588V348.576H419.748V310.104Z" fill="#EBEBEB"/>
<path d="M456.512 310.104H436.352V348.576H456.512V310.104Z" fill="#EBEBEB"/>
<path d="M382.998 370.836H362.838V409.308H382.998V370.836Z" fill="#EBEBEB"/>
<path d="M493.262 370.836H473.102V409.308H493.262V370.836Z" fill="#EBEBEB"/>
<path d="M419.748 370.836H399.588V409.308H419.748V370.836Z" fill="#EBEBEB"/>
<path d="M456.512 370.836H436.352V409.308H456.512V370.836Z" fill="#EBEBEB"/>
<path d="M349.846 233.004H263.69V458.616H349.846V233.004Z" fill="#E6E6E6"/>
<path d="M544.334 257.16H506.268V458.604H544.334V257.16Z" fill="#E6E6E6"/>
<path d="M129.248 458.604H53.844V364.416L129.248 342.552V458.604Z" fill="#E6E6E6"/>
<path d="M350 513.072C499.915 513.072 621.446 504.535 621.446 494.004C621.446 483.473 499.915 474.936 350 474.936C200.085 474.936 78.554 483.473 78.554 494.004C78.554 504.535 200.085 513.072 350 513.072Z" fill="#F5F5F5"/>
<path d="M416.752 418.704H392.952C380.562 418.704 370.552 434.1 370.552 453.096C370.552 472.092 380.59 487.476 392.952 487.476H416.752C429.142 487.476 439.152 472.08 439.152 453.096C439.152 434.112 429.142 418.704 416.752 418.704Z" fill="#263238"/>
<path opacity="0.05" d="M444.752 418.704H420.952C408.562 418.704 398.552 434.1 398.552 453.096C398.552 472.092 408.59 487.476 420.952 487.476H444.752C457.142 487.476 467.152 472.08 467.152 453.096C467.152 434.112 457.142 418.704 444.752 418.704Z" fill="white"/>
<path d="M609.546 426.072L192.78 425.82V197.64H609.546V426.072Z" fill="#407BFF"/>
<path opacity="0.3" d="M609.546 197.64H327.082V426.06H609.546V197.64Z" fill="#263238"/>
<path opacity="0.2" d="M327.082 197.64H192.78V430.572H327.082V197.64Z" fill="white"/>
<path opacity="0.1" d="M193.788 208.248H609.546" stroke="white" stroke-width="2" stroke-linecap="round" stroke-linejoin="round"/>
<path opacity="0.1" d="M193.788 218.124H609.546" stroke="white" stroke-width="2" stroke-linecap="round" stroke-linejoin="round"/>
<path opacity="0.1" d="M193.788 227.988H609.546" stroke="white" stroke-width="2" stroke-linecap="round" stroke-linejoin="round"/>
<path opacity="0.1" d="M193.788 237.852H609.546" stroke="white" stroke-width="2" stroke-linecap="round" stroke-linejoin="round"/>
<path opacity="0.1" d="M193.788 247.728H609.546" stroke="white" stroke-width="2" stroke-linecap="round" stroke-linejoin="round"/>
<path opacity="0.1" d="M193.788 257.592H609.546" stroke="white" stroke-width="2" stroke-linecap="round" stroke-linejoin="round"/>
<path opacity="0.1" d="M193.788 267.456H609.546" stroke="white" stroke-width="2" stroke-linecap="round" stroke-linejoin="round"/>
<path opacity="0.1" d="M193.788 277.32H609.546" stroke="white" stroke-width="2" stroke-linecap="round" stroke-linejoin="round"/>
<path opacity="0.1" d="M193.788 287.196H609.546" stroke="white" stroke-width="2" stroke-linecap="round" stroke-linejoin="round"/>
<path opacity="0.1" d="M193.788 297.06H609.546" stroke="white" stroke-width="2" stroke-linecap="round" stroke-linejoin="round"/>
<path opacity="0.1" d="M193.788 306.924H609.546" stroke="white" stroke-width="2" stroke-linecap="round" stroke-linejoin="round"/>
<path opacity="0.1" d="M193.788 316.8H609.546" stroke="white" stroke-width="2" stroke-linecap="round" stroke-linejoin="round"/>
<path opacity="0.1" d="M193.788 326.664H609.546" stroke="white" stroke-width="2" stroke-linecap="round" stroke-linejoin="round"/>
<path opacity="0.1" d="M193.788 336.528H609.546" stroke="white" stroke-width="2" stroke-linecap="round" stroke-linejoin="round"/>
<path opacity="0.1" d="M193.788 346.392H609.546" stroke="white" stroke-width="2" stroke-linecap="round" stroke-linejoin="round"/>
<path opacity="0.1" d="M193.788 356.268H609.546" stroke="white" stroke-width="2" stroke-linecap="round" stroke-linejoin="round"/>
<path opacity="0.1" d="M193.788 366.132H609.546" stroke="white" stroke-width="2" stroke-linecap="round" stroke-linejoin="round"/>
<path opacity="0.1" d="M193.788 375.996H609.546" stroke="white" stroke-width="2" stroke-linecap="round" stroke-linejoin="round"/>
<path opacity="0.1" d="M193.788 385.872H609.546" stroke="white" stroke-width="2" stroke-linecap="round" stroke-linejoin="round"/>
<path opacity="0.1" d="M193.788 395.736H609.546" stroke="white" stroke-width="2" stroke-linecap="round" stroke-linejoin="round"/>
<path opacity="0.1" d="M193.788 405.6H609.546" stroke="white" stroke-width="2" stroke-linecap="round" stroke-linejoin="round"/>
<path opacity="0.1" d="M193.788 415.476H609.546" stroke="white" stroke-width="2" stroke-linecap="round" stroke-linejoin="round"/>
<path d="M116.298 423.192H94.276C82.796 423.192 73.5 437.448 73.5 455.04C73.5 472.632 82.796 486.876 94.276 486.876H116.298C127.778 486.876 137.074 472.62 137.074 455.04C137.074 437.46 127.778 423.192 116.298 423.192Z" fill="#263238"/>
<path opacity="0.05" d="M144.312 423.192H122.276C110.796 423.192 101.5 437.448 101.5 455.04C101.5 472.632 110.796 486.876 122.276 486.876H144.312C155.778 486.876 165.088 472.62 165.088 455.04C165.088 437.46 155.778 423.192 144.312 423.192Z" fill="white"/>
<path d="M104.048 360.996H93.632C91.588 361.056 89.908 359.184 89.866 356.808C89.8381 356.561 89.8381 356.311 89.866 356.064L92.666 329.1C93.016 326.328 95.018 324.3 97.426 324.168H107.94C109.97 324.168 111.65 326.004 111.692 328.38C111.692 328.62 111.692 328.86 111.692 329.1L108.892 356.064C108.472 358.8 106.4 360.924 104.048 360.996Z" fill="#263238"/>
<path d="M114.464 271.932L94.374 364.8L313.096 438.24L311.57 255.216L263.466 254.016H131.698C123.774 253.956 116.788 261.252 114.464 271.932Z" fill="#407BFF"/>
<path d="M277.2 286.872C269.038 286.56 261.716 292.296 259.322 300.852L242.774 360.276H210.924L209.188 438.672H313.95" fill="#407BFF"/>
<path d="M117.6 355.284C114.394 355.284 111.804 351.756 111.804 347.412C111.803 346.655 111.887 345.899 112.056 345.156L124.082 290.628C125.09 286.104 128.17 283.008 131.656 283.02H246.708C247.954 283.02 248.976 284.388 248.976 286.092C248.979 286.394 248.946 286.696 248.878 286.992C246.358 298.224 238.168 335.436 235.032 349.668C234.304 353.004 232.036 355.284 229.432 355.284H117.6Z" fill="#263238"/>
<path d="M223.468 379.452C223.466 380.408 223.386 381.362 223.23 382.308L222.628 385.824L222.278 387.9L219.702 403.068L215.502 427.728L214.34 434.58H51.534V427.728L51.646 403.068L51.8 388.32V382.32C50.4 374.4 54.866 366.72 61.67 365.124C62.4683 364.937 63.2925 364.844 64.12 364.848H210.924C217.854 364.8 223.468 371.376 223.468 379.452Z" fill="#407BFF"/>
<path d="M306.222 290.4V348.852C306.222 352.392 304.108 355.272 301.49 355.284H261.702C259.084 355.284 256.97 352.404 256.97 348.852C256.969 348.273 257.025 347.695 257.138 347.124L269.402 287.364C269.99 284.496 271.95 282.564 274.134 282.672L301.658 283.968C304.206 284.1 306.222 286.944 306.222 290.4Z" fill="#263238"/>
<path opacity="0.1" d="M184.716 283.02H162.736L137.494 355.284H159.488L184.716 283.02Z" fill="white"/>
<path opacity="0.1" d="M201.824 283.02H191.324L166.096 355.284H176.582L201.824 283.02Z" fill="white"/>
<path d="M265.65 403.068V427.728H51.562L51.674 403.068H265.65Z" fill="black"/>
<path d="M235.83 403.068H216.034L180.432 420.996V427.728H265.65V403.068H235.83Z" fill="white"/>
<path d="M88.466 420.996V427.728H51.562L51.674 403.068H52.878L88.466 420.996Z" fill="white"/>
<path opacity="0.3" d="M313.194 438.672L311.57 255.216L282.17 254.016C274.834 253.704 266.364 261.012 264.222 269.484L242.914 364.8H234.612C225.288 364.8 218.904 370.62 218.918 376.8L219.044 438.696H313.194" fill="#263238"/>
<path d="M222.922 386.688C222.919 386.916 222.86 387.14 222.749 387.347C222.638 387.554 222.478 387.738 222.278 387.888C221.936 388.16 221.485 388.311 221.018 388.308H51.8V385.044H221.06C221.382 385.045 221.699 385.116 221.981 385.25C222.262 385.384 222.499 385.578 222.67 385.812C222.847 386.078 222.934 386.382 222.922 386.688Z" fill="white"/>
<path d="M81.648 385.056V388.32H51.744L51.758 385.056H81.648Z" fill="#263238"/>
<path d="M222.922 386.688C222.919 386.916 222.86 387.14 222.749 387.347C222.638 387.554 222.478 387.738 222.278 387.888C221.936 388.16 221.485 388.311 221.018 388.308H179.97V385.044H221.018C221.34 385.045 221.657 385.116 221.939 385.25C222.22 385.384 222.457 385.578 222.628 385.812C222.82 386.075 222.921 386.378 222.922 386.688Z" fill="#263238"/>
<path d="M617.022 432V432.648C617.022 434.239 616.284 435.765 614.972 436.891C613.659 438.016 611.879 438.648 610.022 438.648H53.942C52.0855 438.648 50.305 438.016 48.9923 436.891C47.6795 435.765 46.942 434.239 46.942 432.648V432C46.942 430.409 47.6795 428.883 48.9923 427.757C50.305 426.632 52.0855 426 53.942 426H610.022C611.879 426 613.659 426.632 614.972 427.757C616.284 428.883 617.022 430.409 617.022 432Z" fill="#263238"/>
<path d="M177.254 430.932H94.374V434.4H177.254V430.932Z" fill="black"/>
<path d="M72.324 432.66C72.324 433.051 72.1889 433.433 71.9357 433.759C71.6825 434.084 71.3225 434.338 70.9012 434.488C70.48 434.638 70.0162 434.678 69.5685 434.603C69.1208 434.527 68.7092 434.34 68.3856 434.064C68.062 433.789 67.8409 433.437 67.7501 433.054C67.6594 432.67 67.7032 432.273 67.8759 431.911C68.0486 431.549 68.3425 431.239 68.7205 431.02C69.0985 430.801 69.5438 430.682 70 430.68C70.3046 430.678 70.6065 430.728 70.8883 430.827C71.1702 430.926 71.4265 431.072 71.6425 431.256C71.8585 431.44 72.0299 431.659 72.1469 431.9C72.2638 432.141 72.324 432.399 72.324 432.66Z" fill="white"/>
<path d="M197.05 432.66C197.05 433.052 196.915 433.434 196.661 433.76C196.407 434.086 196.046 434.339 195.624 434.489C195.202 434.639 194.738 434.678 194.289 434.602C193.841 434.526 193.43 434.337 193.107 434.06C192.784 433.783 192.564 433.43 192.474 433.046C192.385 432.662 192.431 432.264 192.606 431.902C192.781 431.541 193.077 431.231 193.457 431.014C193.837 430.796 194.283 430.68 194.74 430.68C195.043 430.68 195.344 430.731 195.624 430.831C195.904 430.93 196.159 431.076 196.373 431.26C196.588 431.444 196.758 431.662 196.874 431.902C196.99 432.143 197.05 432.4 197.05 432.66Z" fill="white"/>
<path d="M264.026 452.316C264.026 433.224 274.12 417.744 286.58 417.744H262.654C250.208 417.744 240.114 433.224 240.114 452.316C240.114 471.408 250.208 486.876 262.654 486.876H286.58C274.12 486.912 264.026 471.444 264.026 452.316Z" fill="black"/>
<path opacity="0.7" d="M264.026 452.316C264.026 433.224 274.12 417.744 286.58 417.744H262.654C250.208 417.744 240.114 433.224 240.114 452.316C240.114 471.408 250.208 486.876 262.654 486.876H286.58C274.12 486.912 264.026 471.444 264.026 452.316Z" fill="#263238"/>
<path d="M286.58 486.924C299.036 486.924 309.134 471.446 309.134 452.352C309.134 433.258 299.036 417.78 286.58 417.78C274.124 417.78 264.026 433.258 264.026 452.352C264.026 471.446 274.124 486.924 286.58 486.924Z" fill="#263238"/>
<path d="M288.386 479.304C297.216 479.304 304.374 467.237 304.374 452.352C304.374 437.467 297.216 425.4 288.386 425.4C279.556 425.4 272.398 437.467 272.398 452.352C272.398 467.237 279.556 479.304 288.386 479.304Z" fill="white"/>
<path d="M286.93 475.68C295.381 475.68 302.232 465.236 302.232 452.352C302.232 439.468 295.381 429.024 286.93 429.024C278.479 429.024 271.628 439.468 271.628 452.352C271.628 465.236 278.479 475.68 286.93 475.68Z" fill="#263238"/>
<path d="M283.57 469.38C289.74 469.38 294.742 461.756 294.742 452.352C294.742 442.948 289.74 435.324 283.57 435.324C277.4 435.324 272.398 442.948 272.398 452.352C272.398 461.756 277.4 469.38 283.57 469.38Z" fill="black"/>
<path opacity="0.5" d="M617.022 432V432.648C617.022 434.239 616.285 435.765 614.972 436.891C613.659 438.016 611.879 438.648 610.022 438.648H327.082V426H610.022C611.879 426 613.659 426.632 614.972 427.757C616.285 428.883 617.022 430.409 617.022 432Z" fill="black"/>
<path d="M529.088 452.316C529.088 433.224 539.182 417.744 551.628 417.744H527.716C515.256 417.744 505.162 433.224 505.162 452.316C505.162 471.408 515.256 486.876 527.716 486.876H551.6C539.182 486.912 529.088 471.444 529.088 452.316Z" fill="black"/>
<path opacity="0.7" d="M529.088 452.316C529.088 433.224 539.182 417.744 551.628 417.744H527.716C515.256 417.744 505.162 433.224 505.162 452.316C505.162 471.408 515.256 486.876 527.716 486.876H551.6C539.182 486.912 529.088 471.444 529.088 452.316Z" fill="#263238"/>
<path d="M551.628 486.924C564.084 486.924 574.182 471.446 574.182 452.352C574.182 433.258 564.084 417.78 551.628 417.78C539.172 417.78 529.074 433.258 529.074 452.352C529.074 471.446 539.172 486.924 551.628 486.924Z" fill="#263238"/>
<path d="M553.448 479.304C562.278 479.304 569.436 467.237 569.436 452.352C569.436 437.467 562.278 425.4 553.448 425.4C544.618 425.4 537.46 437.467 537.46 452.352C537.46 467.237 544.618 479.304 553.448 479.304Z" fill="white"/>
<path d="M551.978 475.68C560.429 475.68 567.28 465.236 567.28 452.352C567.28 439.468 560.429 429.024 551.978 429.024C543.527 429.024 536.676 439.468 536.676 452.352C536.676 465.236 543.527 475.68 551.978 475.68Z" fill="#263238"/>
<path d="M548.618 469.38C554.788 469.38 559.79 461.756 559.79 452.352C559.79 442.948 554.788 435.324 548.618 435.324C542.448 435.324 537.446 442.948 537.446 452.352C537.446 461.756 542.448 469.38 548.618 469.38Z" fill="black"/>
<path d="M267.241 288.991C266.961 293.611 266.471 298.075 265.673 302.623C264.984 307.32 263.784 311.952 262.089 316.459C261.555 317.771 260.885 319.04 260.087 320.251C259.532 321.067 258.854 321.817 258.071 322.483L257.679 322.795L257.455 322.939L257.343 323.023L256.867 323.299L255.929 323.863C253.552 325.17 251.051 326.306 248.453 327.259C243.523 329.116 238.4 330.57 233.151 331.603L231.331 327.331C235.783 325.219 240.347 323.059 244.505 320.815C246.538 319.746 248.492 318.572 250.357 317.299L250.973 316.855L251.281 316.627C251.281 316.627 251.407 316.447 251.561 316.159C251.97 315.382 252.307 314.58 252.569 313.759C253.202 311.785 253.702 309.781 254.067 307.759C254.501 305.671 254.851 303.547 255.145 301.387C255.719 297.103 256.209 292.711 256.545 288.439L267.241 288.991Z" fill="#CE7A63"/>
<path d="M234.649 327.391L226.053 325.111L227.663 334.027C227.663 334.027 233.263 333.427 236.063 330.739L234.649 327.391Z" fill="#CE7A63"/>
<path d="M215.637 330.847L216.113 332.047C216.382 332.709 216.895 333.279 217.574 333.671C218.253 334.063 219.062 334.255 219.879 334.219L224.261 334.051L222.637 325.111L217.821 326.731C216.908 327.042 216.17 327.645 215.763 328.412C215.356 329.179 215.311 330.051 215.637 330.847Z" fill="#CE7A63"/>
<path d="M277.405 280.339C277.405 283.123 275.837 288.619 274.493 292.747C273.499 295.711 272.673 297.967 272.673 297.967L270.699 297.547L254.431 294.019C254.179 286.819 254.501 278.983 262.831 274.279C268.039 271.327 277.363 275.383 277.405 280.339Z" fill="#263238"/>
<path opacity="0.3" d="M277.391 280.819C276.327 279.859 273.919 279.691 268.669 281.119C261.151 283.159 259.051 290.215 258.953 295.003L270.699 297.547L271.707 297.775L272.673 297.967C272.673 297.967 273.079 296.839 273.667 295.123C273.905 294.427 274.199 293.611 274.479 292.723C275.881 288.841 276.855 284.856 277.391 280.819Z" fill="black"/>
<path d="M244.015 504.355L234.089 501.379L240.333 482.947L250.245 485.935L244.015 504.355Z" fill="#CE7A63"/>
<path d="M376.637 482.515L368.559 487.675L352.025 473.311L360.103 468.151L376.637 482.515Z" fill="#CE7A63"/>
<path d="M365.255 485.575L373.977 479.395C374.125 479.285 374.314 479.224 374.509 479.224C374.705 479.224 374.894 479.285 375.041 479.395L381.733 484.603C381.884 484.731 382.003 484.883 382.084 485.051C382.166 485.219 382.207 485.399 382.207 485.581C382.207 485.762 382.166 485.942 382.084 486.11C382.003 486.278 381.884 486.43 381.733 486.559L381.593 486.667C378.513 488.779 376.889 489.667 373.053 492.379C370.701 494.047 365.759 498.043 362.497 500.347C359.235 502.651 356.407 500.023 357.527 498.811C362.525 493.387 363.687 489.811 364.275 486.883C364.416 486.363 364.763 485.901 365.255 485.575Z" fill="#263238"/>
<path d="M233.417 498.715L244.449 502.663C244.646 502.736 244.81 502.863 244.916 503.023C245.022 503.183 245.064 503.368 245.037 503.551L243.791 511.891C243.742 512.224 243.541 512.528 243.231 512.735C242.922 512.942 242.529 513.035 242.139 512.995C241.994 512.981 241.853 512.949 241.719 512.899C237.813 511.543 235.979 510.871 231.135 509.131L216.267 503.791C212.235 502.339 213.103 498.547 214.867 498.823C223.029 500.095 228.293 499.675 231.513 498.631C231.822 498.536 232.148 498.495 232.475 498.509C232.802 498.524 233.122 498.593 233.417 498.715Z" fill="#263238"/>
<path opacity="0.2" d="M240.333 482.959L237.127 492.451L246.787 496.195L250.259 485.935L240.333 482.959Z" fill="black"/>
<path opacity="0.2" d="M360.117 468.151L352.025 473.311L360.551 480.715L368.629 475.555L360.117 468.151Z" fill="black"/>
<path d="M307.925 325.387L267.045 325.891C261.445 298.759 260.045 285.811 260.045 279.583C260.038 278.029 260.664 276.522 261.814 275.322C262.964 274.122 264.566 273.303 266.345 273.007C268.837 272.587 271.945 272.107 275.067 271.735C276.131 271.615 277.209 271.495 278.273 271.399C284.447 270.945 290.651 270.868 296.837 271.171C297.761 271.171 298.671 271.243 299.637 271.291C303.837 271.519 307.673 271.975 310.403 272.335C311.385 272.47 312.264 272.934 312.847 273.625C313.43 274.316 313.669 275.177 313.511 276.019C313.518 276.078 313.518 276.139 313.511 276.199C312.307 280.999 311.327 285.259 310.543 289.051C309.297 295.051 308.513 299.947 308.051 304.219C307.351 311.26 307.309 318.339 307.925 325.387Z" fill="#263238"/>
<path opacity="0.1" d="M308.037 304.255C305.979 298.963 306.091 287.983 308.303 284.431L310.557 289.075C309.283 295.111 308.499 299.983 308.037 304.255Z" fill="black"/>
<path d="M267.045 325.891C267.045 325.891 260.045 376.903 253.731 408.691C248.733 433.579 236.105 485.383 236.105 485.383L252.499 490.363C252.499 490.363 271.273 436.363 274.563 413.299C287.793 380.047 297.313 325.639 297.313 325.639L267.045 325.891Z" fill="#407BFF"/>
<path d="M233.445 488.863L252.415 494.587L254.949 489.367L234.369 482.623L233.445 488.863Z" fill="#263238"/>
<path opacity="0.1" d="M287.765 341.047L281.633 351.115C279.393 358.699 279.925 377.155 282.767 388.819C287.863 371.239 291.937 352.735 294.471 340.315L287.765 341.047Z" fill="black"/>
<path d="M275.921 325.891C275.921 325.891 283.243 382.987 296.921 414.691C303.781 430.591 354.671 477.727 354.671 477.727L366.151 469.855C366.151 469.855 333.881 422.299 319.769 409.855C314.015 382.255 321.253 340.879 307.883 325.399L275.921 325.891Z" fill="#407BFF"/>
<path d="M355.637 481.099L369.105 471.643L365.465 466.519L350.723 477.523L355.637 481.099Z" fill="#263238"/>
<path d="M308.569 323.335L310.459 326.442C310.599 326.682 310.277 326.947 309.801 326.947L266.905 327.475C266.527 327.475 266.233 327.319 266.191 327.127L265.785 323.995C265.785 323.779 266.079 323.586 266.471 323.586L307.883 323.071C308.014 323.064 308.145 323.084 308.264 323.13C308.384 323.176 308.488 323.246 308.569 323.335Z" fill="#263238"/>
<path d="M303.011 327.391H304.145C304.355 327.391 304.523 327.283 304.509 327.175L303.907 323.095C303.907 322.975 303.711 322.891 303.487 322.891H302.437C302.213 322.891 302.045 322.999 302.073 323.107L302.661 327.175C302.591 327.271 302.801 327.391 303.011 327.391Z" fill="#407BFF"/>
<path d="M269.985 327.775H271.105C271.329 327.775 271.483 327.667 271.469 327.547L270.895 323.479C270.895 323.359 270.671 323.263 270.447 323.263H269.327C269.103 323.263 268.935 323.371 268.949 323.491L269.537 327.559C269.565 327.679 269.761 327.775 269.985 327.775Z" fill="#407BFF"/>
<path d="M286.505 327.547H287.625C287.849 327.547 288.017 327.439 288.003 327.319L287.415 323.25C287.415 323.118 287.205 323.023 286.981 323.035H285.861C285.637 323.035 285.483 323.143 285.483 323.263L286.071 327.331C286.057 327.475 286.281 327.547 286.505 327.547Z" fill="#407BFF"/>
<path d="M212.333 289.975L273.009 282.835L281.409 333.895L221.825 340.903L212.333 289.975Z" fill="#407BFF"/>
<path opacity="0.8" d="M212.333 289.975L273.009 282.835L281.409 333.895L221.825 340.903L212.333 289.975Z" fill="white"/>
<path opacity="0.2" d="M273.842 280.369L257.64 282.333L266.331 335.009L282.533 333.045L273.842 280.369Z" fill="#407BFF"/>
<path d="M290.215 327.463L281.815 324.643L282.641 333.643C282.641 333.643 288.241 333.403 291.251 330.895L290.215 327.463Z" fill="#CE7A63"/>
<path d="M316.633 282.655C318.887 288.055 320.833 293.455 322.485 298.975C323.325 301.747 324.109 304.531 324.739 307.375C325.047 308.815 325.313 310.279 325.509 311.803C325.734 313.395 325.814 315 325.747 316.603C325.708 317.646 325.52 318.682 325.187 319.687C324.727 320.922 323.958 322.056 322.933 323.011C321.436 324.385 319.657 325.512 317.683 326.335C314.453 327.678 311.051 328.697 307.547 329.371C300.997 330.673 294.317 331.44 287.597 331.663L286.939 327.139C290.005 326.515 293.141 325.819 296.193 325.087C299.245 324.355 302.283 323.539 305.195 322.627C307.977 321.807 310.659 320.758 313.203 319.495C314.128 319.031 314.952 318.434 315.639 317.731C315.821 317.491 315.821 317.431 315.793 317.431C315.821 317.075 315.821 316.718 315.793 316.363C315.74 315.199 315.595 314.041 315.359 312.895C315.135 311.695 314.827 310.351 314.491 309.031C313.791 306.463 313.007 303.835 312.125 301.207C310.375 295.999 308.401 290.707 306.427 285.607L316.633 282.655Z" fill="#CE7A63"/>
<path d="M274.073 329.083L274.731 331.171C274.929 331.841 275.376 332.438 276.005 332.871C276.634 333.304 277.411 333.55 278.217 333.571L282.725 333.679L281.899 324.691L277.307 325.135C276.82 325.177 276.347 325.301 275.915 325.499C275.484 325.698 275.103 325.968 274.793 326.294C274.484 326.619 274.252 326.994 274.112 327.396C273.971 327.799 273.925 328.221 273.975 328.639C273.996 328.788 274.029 328.937 274.073 329.083Z" fill="#CE7A63"/>
<path d="M311.859 272.599C316.563 274.243 320.413 287.491 320.413 287.491L307.421 296.191C307.421 296.191 298.209 283.831 300.085 278.467C301.681 273.931 305.867 270.523 311.859 272.599Z" fill="#263238"/>
<path d="M362.077 489.319H361.909C361.674 489.305 361.447 489.24 361.249 489.131C361.051 489.022 360.888 488.872 360.775 488.695C360.692 488.592 360.641 488.473 360.629 488.349C360.617 488.224 360.643 488.099 360.705 487.986C361.279 487.026 364.905 486.643 365.297 486.607C365.344 486.599 365.392 486.604 365.434 486.621C365.477 486.639 365.513 486.667 365.535 486.703C365.562 486.736 365.576 486.776 365.576 486.817C365.576 486.857 365.562 486.897 365.535 486.931C364.779 487.807 363.309 489.247 362.077 489.319ZM364.807 487.075C363.407 487.255 361.433 487.651 361.153 488.179C361.12 488.223 361.102 488.275 361.102 488.329C361.102 488.382 361.12 488.434 361.153 488.479C361.219 488.602 361.323 488.707 361.454 488.783C361.585 488.859 361.737 488.903 361.895 488.911C362.595 488.911 363.715 488.263 364.835 487.075H364.807Z" fill="#263238"/>
<path d="M365.129 486.991C363.911 486.991 361.475 486.619 360.929 485.791C360.842 485.647 360.814 485.482 360.85 485.323C360.886 485.164 360.983 485.02 361.125 484.915C361.249 484.798 361.401 484.707 361.57 484.647C361.739 484.587 361.922 484.559 362.105 484.567C363.575 484.567 365.437 486.499 365.493 486.607C365.514 486.635 365.526 486.669 365.526 486.703C365.526 486.737 365.514 486.77 365.493 486.799C365.482 486.834 365.459 486.865 365.426 486.889C365.394 486.912 365.354 486.927 365.311 486.931L365.129 486.991ZM362.021 484.999C361.824 485.015 361.64 485.092 361.503 485.215C361.293 485.407 361.335 485.526 361.391 485.622C361.713 486.15 363.631 486.583 364.863 486.583C364.161 485.827 363.21 485.271 362.133 484.987L362.021 484.999Z" fill="#263238"/>
<path d="M227.775 498.523C226.997 498.305 226.317 497.886 225.829 497.323C225.718 497.156 225.651 496.972 225.632 496.781C225.612 496.59 225.642 496.399 225.717 496.219C225.756 496.115 225.825 496.022 225.918 495.948C226.011 495.874 226.126 495.823 226.249 495.799C227.537 495.595 230.575 498.391 231.163 498.955C231.191 498.99 231.206 499.032 231.206 499.075C231.206 499.117 231.191 499.159 231.163 499.195C231.14 499.232 231.102 499.262 231.057 499.28C231.011 499.297 230.96 499.301 230.911 499.291C229.838 499.126 228.788 498.869 227.775 498.523ZM226.809 496.267C226.666 496.207 226.506 496.182 226.347 496.195C226.347 496.195 226.221 496.195 226.165 496.339C226.109 496.463 226.087 496.598 226.102 496.731C226.116 496.864 226.167 496.993 226.249 497.107C226.683 497.755 228.181 498.367 230.309 498.763C229.311 497.781 228.139 496.938 226.837 496.267H226.809Z" fill="#263238"/>
<path d="M230.897 499.267H230.813C229.791 498.391 228.125 495.763 228.699 494.923C228.825 494.743 229.091 494.551 229.693 494.695C231.947 495.259 231.261 499.003 231.219 499.159C231.219 499.198 231.202 499.236 231.171 499.265C231.14 499.294 231.097 499.311 231.051 499.315C231.023 499.32 230.994 499.318 230.966 499.31C230.939 499.301 230.915 499.286 230.897 499.267ZM229.777 495.079H229.637C229.413 495.019 229.245 495.079 229.189 495.079C228.853 495.571 229.931 497.551 230.911 498.607C230.897 497.683 231.037 495.559 229.777 495.079Z" fill="#263238"/>
<path d="M273.149 235.267C273.149 235.267 267.549 243.295 271.749 246.811C275.949 250.327 277.181 237.859 277.181 237.859L273.149 235.267Z" fill="#263238"/>
<path d="M299.161 254.107C299.161 254.107 306.161 244.723 303.249 235.399C300.337 226.075 286.729 232.099 280.989 229.543C278.886 228.447 276.646 227.557 274.311 226.891C273.936 226.795 273.54 226.775 273.154 226.831C272.769 226.887 272.403 227.018 272.085 227.215C270.685 228.271 273.121 230.251 273.877 230.995C273.412 230.533 272.875 230.13 272.281 229.795C271.539 229.375 270.545 229.339 270.881 230.407C271.457 231.554 272.489 232.489 273.793 233.047C273.247 232.783 270.013 231.379 269.789 232.255C269.761 232.467 269.826 232.681 269.971 232.855C272.071 236.215 276.299 240.439 281.171 240.523C287.037 240.595 292.637 254.743 299.161 254.107Z" fill="#263238"/>
<path d="M301.639 254.527C301.275 257.695 295.787 257.731 295.787 257.731C294.889 259.544 293.396 261.094 291.489 262.195C291.321 264.108 291.396 266.031 291.713 267.931C292.637 270.919 293.813 271.951 295.283 272.623L294.107 273.619C291.856 274.732 289.313 275.339 286.715 275.383L285.175 274.615L283.159 274.891C277.559 273.319 278.959 270.091 278.959 270.091C279.981 267.899 280.036 265.463 279.113 263.239C273.737 261.799 271.539 257.791 270.783 251.047C270.027 244.303 274.451 237.847 274.451 237.847C280.527 242.875 292.567 239.647 292.567 239.647C292.049 249.103 297.201 252.595 297.201 252.595C298.895 251.299 301.989 251.371 301.639 254.527Z" fill="#CE7A63"/>
<path d="M282.095 255.391C283.54 255.044 284.789 254.259 285.609 253.183C285.676 253.098 285.701 252.994 285.68 252.893C285.659 252.793 285.594 252.703 285.497 252.643C285.45 252.612 285.395 252.59 285.338 252.578C285.28 252.566 285.22 252.564 285.162 252.572C285.103 252.58 285.047 252.597 284.996 252.624C284.946 252.65 284.902 252.685 284.867 252.727C284.395 253.454 283.663 254.034 282.779 254.379C281.894 254.725 280.904 254.818 279.953 254.647C279.84 254.616 279.718 254.626 279.613 254.673C279.508 254.721 279.429 254.802 279.393 254.899C279.358 254.997 279.369 255.104 279.424 255.196C279.479 255.288 279.573 255.358 279.687 255.391C280.477 255.567 281.306 255.567 282.095 255.391Z" fill="#263238"/>
<path d="M283.691 247.135C283.691 247.747 283.411 248.275 282.935 248.335C282.459 248.395 282.025 247.891 281.969 247.279C281.913 246.667 282.263 246.079 282.739 246.079C283.215 246.079 283.635 246.511 283.691 247.135Z" fill="#263238"/>
<path d="M275.123 246.823C275.123 247.435 274.843 247.963 274.367 248.023C273.891 248.083 273.471 247.579 273.415 246.967C273.359 246.355 273.695 245.827 274.171 245.767C274.647 245.707 275.081 246.199 275.123 246.823Z" fill="#263238"/>
<path d="M277.391 252.763L277.293 248.323L274.717 252.067C275.073 252.347 275.499 252.556 275.962 252.676C276.425 252.797 276.913 252.826 277.391 252.763Z" fill="#BA4D3C"/>
<path d="M287.597 243.391C287.658 243.376 287.715 243.352 287.765 243.319C287.834 243.284 287.893 243.238 287.94 243.183C287.987 243.129 288.021 243.067 288.04 243C288.058 242.934 288.06 242.866 288.047 242.799C288.033 242.732 288.004 242.668 287.961 242.611C287.495 241.941 286.819 241.397 286.009 241.04C285.2 240.684 284.29 240.529 283.383 240.595C283.305 240.602 283.228 240.623 283.159 240.656C283.09 240.689 283.029 240.734 282.981 240.788C282.933 240.842 282.897 240.903 282.878 240.969C282.858 241.035 282.854 241.103 282.865 241.171C282.886 241.306 282.969 241.428 283.095 241.511C283.22 241.594 283.38 241.632 283.537 241.615C284.214 241.578 284.89 241.703 285.49 241.973C286.09 242.244 286.591 242.652 286.939 243.151C287.005 243.246 287.104 243.32 287.222 243.363C287.341 243.407 287.472 243.416 287.597 243.391Z" fill="#263238"/>
<path d="M272.407 242.899C272.565 242.863 272.7 242.777 272.785 242.659C273.036 242.333 273.392 242.077 273.81 241.922C274.227 241.766 274.688 241.718 275.137 241.783C275.215 241.796 275.294 241.797 275.372 241.784C275.449 241.77 275.523 241.744 275.588 241.706C275.654 241.668 275.71 241.619 275.752 241.562C275.795 241.505 275.824 241.441 275.837 241.375C275.866 241.241 275.832 241.103 275.743 240.991C275.654 240.878 275.517 240.801 275.361 240.775C274.669 240.664 273.953 240.736 273.309 240.98C272.664 241.224 272.121 241.629 271.749 242.143C271.671 242.261 271.649 242.401 271.688 242.533C271.728 242.665 271.825 242.778 271.959 242.851C272.097 242.913 272.256 242.931 272.407 242.899Z" fill="#263238"/>
<path d="M297.565 273.043L294.555 275.563L289.193 280.075L287.177 277.327L285.175 274.615L292.175 267.463L297.271 272.743L297.565 273.043Z" fill="white"/>
<path d="M285.175 274.615L283.621 276.835L281.339 280.075L276.103 271.975L279.449 268.603L285.175 274.615Z" fill="white"/>
<g filter="url(#filter0_d_24_344)">
<path d="M419.461 234.72H428.421V240H412.621V211.92H419.461V234.72ZM444.963 240.28C442.323 240.28 439.896 239.667 437.683 238.44C435.496 237.213 433.75 235.507 432.443 233.32C431.163 231.107 430.523 228.627 430.523 225.88C430.523 223.133 431.163 220.667 432.443 218.48C433.75 216.293 435.496 214.587 437.683 213.36C439.896 212.133 442.323 211.52 444.963 211.52C447.603 211.52 450.016 212.133 452.203 213.36C454.416 214.587 456.15 216.293 457.403 218.48C458.683 220.667 459.323 223.133 459.323 225.88C459.323 228.627 458.683 231.107 457.403 233.32C456.123 235.507 454.39 237.213 452.203 238.44C450.016 239.667 447.603 240.28 444.963 240.28ZM444.963 234.04C447.203 234.04 448.99 233.293 450.323 231.8C451.683 230.307 452.363 228.333 452.363 225.88C452.363 223.4 451.683 221.427 450.323 219.96C448.99 218.467 447.203 217.72 444.963 217.72C442.696 217.72 440.883 218.453 439.523 219.92C438.19 221.387 437.523 223.373 437.523 225.88C437.523 228.36 438.19 230.347 439.523 231.84C440.883 233.307 442.696 234.04 444.963 234.04ZM484.528 220.96C484.528 222.587 484.155 224.08 483.408 225.44C482.662 226.773 481.515 227.853 479.968 228.68C478.422 229.507 476.502 229.92 474.208 229.92H469.968V240H463.128V211.92H474.208C476.448 211.92 478.342 212.307 479.888 213.08C481.435 213.853 482.595 214.92 483.368 216.28C484.142 217.64 484.528 219.2 484.528 220.96ZM473.688 224.48C474.995 224.48 475.968 224.173 476.608 223.56C477.248 222.947 477.568 222.08 477.568 220.96C477.568 219.84 477.248 218.973 476.608 218.36C475.968 217.747 474.995 217.44 473.688 217.44H469.968V224.48H473.688ZM494.929 217.4V223.08H504.089V228.36H494.929V234.52H505.289V240H488.089V211.92H505.289V217.4H494.929ZM519.89 240.28C517.837 240.28 515.997 239.947 514.37 239.28C512.743 238.613 511.437 237.627 510.45 236.32C509.49 235.013 508.983 233.44 508.93 231.6H516.21C516.317 232.64 516.677 233.44 517.29 234C517.903 234.533 518.703 234.8 519.69 234.8C520.703 234.8 521.503 234.573 522.09 234.12C522.677 233.64 522.97 232.987 522.97 232.16C522.97 231.467 522.73 230.893 522.25 230.44C521.797 229.987 521.223 229.613 520.53 229.32C519.863 229.027 518.903 228.693 517.65 228.32C515.837 227.76 514.357 227.2 513.21 226.64C512.063 226.08 511.077 225.253 510.25 224.16C509.423 223.067 509.01 221.64 509.01 219.88C509.01 217.267 509.957 215.227 511.85 213.76C513.743 212.267 516.21 211.52 519.25 211.52C522.343 211.52 524.837 212.267 526.73 213.76C528.623 215.227 529.637 217.28 529.77 219.92H522.37C522.317 219.013 521.983 218.307 521.37 217.8C520.757 217.267 519.97 217 519.01 217C518.183 217 517.517 217.227 517.01 217.68C516.503 218.107 516.25 218.733 516.25 219.56C516.25 220.467 516.677 221.173 517.53 221.68C518.383 222.187 519.717 222.733 521.53 223.32C523.343 223.933 524.81 224.52 525.93 225.08C527.077 225.64 528.063 226.453 528.89 227.52C529.717 228.587 530.13 229.96 530.13 231.64C530.13 233.24 529.717 234.693 528.89 236C528.09 237.307 526.917 238.347 525.37 239.12C523.823 239.893 521.997 240.28 519.89 240.28ZM386.384 280.96C386.384 282.587 386.011 284.08 385.264 285.44C384.517 286.773 383.371 287.853 381.824 288.68C380.277 289.507 378.357 289.92 376.064 289.92H371.824V300H364.984V271.92H376.064C378.304 271.92 380.197 272.307 381.744 273.08C383.291 273.853 384.451 274.92 385.224 276.28C385.997 277.64 386.384 279.2 386.384 280.96ZM375.544 284.48C376.851 284.48 377.824 284.173 378.464 283.56C379.104 282.947 379.424 282.08 379.424 280.96C379.424 279.84 379.104 278.973 378.464 278.36C377.824 277.747 376.851 277.44 375.544 277.44H371.824V284.48H375.544ZM407.425 295.04H396.945L395.265 300H388.105L398.265 271.92H406.185L416.345 300H409.105L407.425 295.04ZM405.665 289.76L402.185 279.48L398.745 289.76H405.665ZM440.837 280.96C440.837 282.587 440.464 284.08 439.717 285.44C438.97 286.773 437.824 287.853 436.277 288.68C434.73 289.507 432.81 289.92 430.517 289.92H426.277V300H419.437V271.92H430.517C432.757 271.92 434.65 272.307 436.197 273.08C437.744 273.853 438.904 274.92 439.677 276.28C440.45 277.64 440.837 279.2 440.837 280.96ZM429.997 284.48C431.304 284.48 432.277 284.173 432.917 283.56C433.557 282.947 433.877 282.08 433.877 280.96C433.877 279.84 433.557 278.973 432.917 278.36C432.277 277.747 431.304 277.44 429.997 277.44H426.277V284.48H429.997ZM451.238 277.4V283.08H460.398V288.36H451.238V294.52H461.598V300H444.398V271.92H461.598V277.4H451.238ZM472.879 294.72H481.839V300H466.039V271.92H472.879V294.72ZM502.581 295.04H492.101L490.421 300H483.261L493.421 271.92H501.341L511.501 300H504.261L502.581 295.04ZM500.821 289.76L497.341 279.48L493.901 289.76H500.821ZM528.913 300L523.073 289.4H521.433V300H514.593V271.92H526.073C528.287 271.92 530.167 272.307 531.713 273.08C533.287 273.853 534.46 274.92 535.233 276.28C536.007 277.613 536.393 279.107 536.393 280.76C536.393 282.627 535.86 284.293 534.793 285.76C533.753 287.227 532.207 288.267 530.153 288.88L536.633 300H528.913ZM521.433 284.56H525.673C526.927 284.56 527.86 284.253 528.473 283.64C529.113 283.027 529.433 282.16 529.433 281.04C529.433 279.973 529.113 279.133 528.473 278.52C527.86 277.907 526.927 277.6 525.673 277.6H521.433V284.56ZM547.527 271.92V300H540.687V271.92H547.527ZM569.964 295.04H559.484L557.804 300H550.644L560.804 271.92H568.724L578.884 300H571.644L569.964 295.04ZM568.204 289.76L564.724 279.48L561.284 289.76H568.204Z" fill="white"/>
</g>
<defs>
<filter id="filter0_d_24_344" x="360.984" y="211.52" width="221.9" height="96.48" filterUnits="userSpaceOnUse" color-interpolation-filters="sRGB">
<feFlood flood-opacity="0" result="BackgroundImageFix"/>
<feColorMatrix in="SourceAlpha" type="matrix" values="0 0 0 0 0 0 0 0 0 0 0 0 0 0 0 0 0 0 127 0" result="hardAlpha"/>
<feOffset dy="4"/>
<feGaussianBlur stdDeviation="2"/>
<feComposite in2="hardAlpha" operator="out"/>
<feColorMatrix type="matrix" values="0 0 0 0 0 0 0 0 0 0 0 0 0 0 0 0 0 0 0.25 0"/>
<feBlend mode="normal" in2="BackgroundImageFix" result="effect1_dropShadow_24_344"/>
<feBlend mode="normal" in="SourceGraphic" in2="effect1_dropShadow_24_344" result="shape"/>
</filter>
</defs>
</svg>
